<svg width="38" height="24" viewBox="0 0 38 24" fill="none" xmlns="http://www.w3.org/2000/svg">
<path d="M33.6278 0H3.73201C1.66749 0 0 1.66749 0 3.73201V10.1538C0 12.2184 1.66749 13.8859 3.73201 13.8859H5.91563V12.2481C5.91563 10.8883 7.01737 9.77668 8.3871 9.77668H28.9628C30.3226 9.77668 31.4342 10.8784 31.4342 12.2481V13.8859H33.6179C35.6824 13.8859 37.3499 12.2184 37.3499 10.1538V3.73201C37.3598 1.66749 35.6824 0 33.6278 0ZM18.7494 6.2531C16.4169 6.2531 14.531 5.76675 14.531 5.17122C14.531 4.57568 16.4169 4.08933 18.7494 4.08933C21.0819 4.08933 22.9677 4.57568 22.9677 5.17122C22.9677 5.76675 21.0819 6.2531 18.7494 6.2531Z" fill="#24253D"/>
<path d="M28.2581 10.9777H9.10174C8.10918 10.9777 7.29529 11.7221 7.29529 12.6452V13.8759H30.0744V12.6452C30.0645 11.732 29.2605 10.9777 28.2581 10.9777Z" fill="#24253D"/>
<path d="M18.9181 19.3151C18.4318 19.067 18.1439 18.7494 18.1439 18.4615C18.1439 18.1836 18.4318 17.866 18.9181 17.6079C19.1762 17.4789 19.2754 17.1514 19.1464 16.8933C19.0174 16.6352 18.6898 16.536 18.4318 16.665C17.5682 17.1117 17.0918 17.7469 17.0918 18.4516C17.0918 19.1563 17.5682 19.7916 18.4318 20.2382C18.9181 20.4864 19.206 20.804 19.206 21.0918C19.206 21.3797 18.9181 21.6873 18.4318 21.9454C18.1737 22.0744 18.0744 22.402 18.2035 22.6601C18.2928 22.8387 18.4814 22.9479 18.67 22.9479C18.7494 22.9479 18.8387 22.928 18.9082 22.8883C19.7717 22.4417 20.2481 21.8064 20.2481 21.1017C20.2581 20.397 19.7816 19.7618 18.9181 19.3151Z" fill="#24253D"/>
<path d="M13.1216 20.3672C12.6352 20.1191 12.3474 19.8015 12.3474 19.5136C12.3474 19.2258 12.6352 18.9181 13.1216 18.66C13.3797 18.531 13.4789 18.2035 13.3499 17.9454C13.2208 17.6873 12.8933 17.5881 12.6352 17.7171C11.7717 18.1638 11.2953 18.799 11.2953 19.5037C11.2953 20.2084 11.7717 20.8437 12.6352 21.2903C13.1216 21.5385 13.4094 21.8561 13.4094 22.1439C13.4094 22.4318 13.1216 22.7395 12.6352 22.9975C12.3772 23.1266 12.2779 23.4541 12.4069 23.7122C12.4963 23.8908 12.6849 24 12.8734 24C12.9529 24 13.0422 23.9801 13.1117 23.9404C13.9752 23.4938 14.4516 22.8586 14.4516 22.1538C14.4516 21.4491 13.9851 20.8139 13.1216 20.3672Z" fill="#24253D"/>
<path d="M24.7246 20.3672C24.2382 20.1191 23.9504 19.8015 23.9504 19.5136C23.9504 19.2258 24.2382 18.9181 24.7246 18.66C24.9826 18.531 25.0819 18.2035 24.9529 17.9454C24.8238 17.6873 24.4963 17.5881 24.2382 17.7171C23.3747 18.1638 22.8983 18.799 22.8983 19.5037C22.8983 20.2084 23.3747 20.8437 24.2382 21.2903C24.7246 21.5385 25.0124 21.8561 25.0124 22.1439C25.0124 22.4318 24.7246 22.7395 24.2382 22.9975C23.9801 23.1266 23.8809 23.4541 24.0099 23.7122C24.0993 23.8908 24.2878 24 24.4764 24C24.5558 24 24.6452 23.9801 24.7146 23.9404C25.5782 23.4938 26.0546 22.8586 26.0546 22.1538C26.0546 21.4491 25.5881 20.8139 24.7246 20.3672Z" fill="#24253D"/>
</svg>
