<svg width="25" height="24" viewBox="0 0 25 24" fill="none" xmlns="http://www.w3.org/2000/svg">
<path d="M0 3.27273C0 2.40475 0.352467 1.57232 0.979861 0.95856C1.60726 0.344805 2.45818 0 3.34545 0H15.9838C16.8711 0 17.722 0.344805 18.3494 0.95856C18.9768 1.57232 19.3293 2.40475 19.3293 3.27273V14.5455H24.5333V19.2727C24.5333 20.5265 24.0242 21.7289 23.118 22.6154C22.2117 23.502 20.9826 24 19.701 24H3.34545C2.45818 24 1.60726 23.6552 0.979861 23.0414C0.352467 22.4277 0 21.5953 0 20.7273V3.27273ZM19.3293 21.8182H19.701C20.3911 21.8182 21.0529 21.55 21.5409 21.0726C22.0289 20.5953 22.303 19.9478 22.303 19.2727V16.7273H19.3293V21.8182ZM5.57576 5.81818C5.28 5.81818 4.99636 5.93312 4.78723 6.1377C4.57809 6.34229 4.46061 6.61976 4.46061 6.90909C4.46061 7.19842 4.57809 7.47589 4.78723 7.68048C4.99636 7.88506 5.28 8 5.57576 8H13.7535C14.0493 8 14.3329 7.88506 14.5421 7.68048C14.7512 7.47589 14.8687 7.19842 14.8687 6.90909C14.8687 6.61976 14.7512 6.34229 14.5421 6.1377C14.3329 5.93312 14.0493 5.81818 13.7535 5.81818H5.57576ZM5.57576 10.9091C5.28 10.9091 4.99636 11.024 4.78723 11.2286C4.57809 11.4332 4.46061 11.7107 4.46061 12C4.46061 12.2893 4.57809 12.5668 4.78723 12.7714C4.99636 12.976 5.28 13.0909 5.57576 13.0909H13.7535C14.0493 13.0909 14.3329 12.976 14.5421 12.7714C14.7512 12.5668 14.8687 12.2893 14.8687 12C14.8687 11.7107 14.7512 11.4332 14.5421 11.2286C14.3329 11.024 14.0493 10.9091 13.7535 10.9091H5.57576ZM5.57576 16C5.28 16 4.99636 16.1149 4.78723 16.3195C4.57809 16.5241 4.46061 16.8016 4.46061 17.0909C4.46061 17.3802 4.57809 17.6577 4.78723 17.8623C4.99636 18.0669 5.28 18.1818 5.57576 18.1818H9.29293C9.58869 18.1818 9.87233 18.0669 10.0815 17.8623C10.2906 17.6577 10.4081 17.3802 10.4081 17.0909C10.4081 16.8016 10.2906 16.5241 10.0815 16.3195C9.87233 16.1149 9.58869 16 9.29293 16H5.57576Z" fill="#24253D"/>
</svg>
