<svg width="21" height="24" viewBox="0 0 21 24" fill="none" xmlns="http://www.w3.org/2000/svg">
<path d="M19.571 0H3.0686C2.25906 0.00169438 1.48323 0.324362 0.91125 0.897244C0.339268 1.47013 0.0178205 2.24646 0.0173987 3.056C0.0173987 3.0752 0.0173987 3.1024 0.0173987 3.1216C0.0173987 4.672 -0.00180131 18.9616 0.0173987 20.8336C0.0143707 20.8703 0.0143707 20.9073 0.0173987 20.944C0.0187078 21.7191 0.314956 22.4647 0.845989 23.0293C1.37702 23.5939 2.10303 23.9352 2.8766 23.984C2.90957 23.9927 2.94334 23.9981 2.9774 24H19.571C19.7407 24 19.9035 23.9326 20.0235 23.8125C20.1436 23.6925 20.211 23.5297 20.211 23.36V0.64C20.211 0.470261 20.1436 0.307475 20.0235 0.187452C19.9035 0.0674284 19.7407 0 19.571 0ZM7.2366 6.3536H10.7246C11.4385 6.30753 12.1486 6.48842 12.7534 6.8704C12.9818 7.0282 13.1668 7.24086 13.2915 7.48885C13.4162 7.73684 13.4765 8.01219 13.467 8.2896C13.4738 8.63166 13.3857 8.96892 13.2126 9.264C13.0437 9.54415 12.8014 9.77269 12.5118 9.9248C12.8986 10.0429 13.2391 10.2783 13.4862 10.5984C13.7347 10.9371 13.8616 11.3498 13.8462 11.7696C13.8596 12.0611 13.7981 12.3513 13.6676 12.6123C13.5371 12.8733 13.3419 13.0966 13.1006 13.2608C12.449 13.6528 11.6929 13.8354 10.9342 13.784H7.2366V6.3536ZM18.9358 22.4C18.9358 22.4849 18.9021 22.5663 18.8421 22.6263C18.7821 22.6863 18.7007 22.72 18.6158 22.72H3.0686C2.60935 22.7208 2.16761 22.5438 1.83594 22.2262C1.50427 21.9085 1.30841 21.4749 1.2894 21.016V20.84C1.3159 20.3858 1.51479 19.9588 1.84545 19.6463C2.17612 19.3338 2.61361 19.1593 3.0686 19.1584H18.6078C18.6927 19.1584 18.7741 19.1921 18.8341 19.2521C18.8941 19.3121 18.9278 19.3935 18.9278 19.4784L18.9358 22.4Z" fill="#24253D"/>
<path d="M11.6798 9.2256C11.8058 9.14454 11.9083 9.03184 11.9771 8.89876C12.0459 8.76567 12.0785 8.61686 12.0718 8.4672C12.0794 8.31611 12.0479 8.16561 11.9803 8.03024C11.9128 7.89487 11.8115 7.7792 11.6862 7.6944C11.3473 7.49743 10.9573 7.40607 10.5662 7.432H8.6174V9.48H10.5742C10.9598 9.50672 11.3446 9.41817 11.6798 9.2256Z" fill="#24253D"/>
<path d="M12.4574 11.6336C12.4574 10.92 11.9214 10.56 10.8574 10.56H8.6174V12.7056H10.8478C11.915 12.7056 12.4574 12.3456 12.4574 11.6336Z" fill="#24253D"/>
</svg>
