<svg width="24" height="24" viewBox="0 0 24 24" fill="none" xmlns="http://www.w3.org/2000/svg">
<path d="M7.05574 11.2614C6.72434 10.929 6.1858 10.929 5.85439 11.2614C5.52299 11.5939 5.52299 12.134 5.85439 12.4664L9.76913 16.393C9.93484 16.5592 10.142 16.6423 10.3698 16.6423C10.3905 16.6423 10.3905 16.6423 10.4112 16.6423C10.6391 16.6216 10.8669 16.5177 11.0326 16.3307L20.8298 4.55092C21.1198 4.19774 21.0784 3.65757 20.7263 3.34594C20.3741 3.05508 19.8356 3.09663 19.5249 3.44982L10.3077 14.5232L7.05574 11.2614Z" fill="#24253D"/>
<path d="M18.3359 1.83328C13.5787 -1.14156 7.47709 -0.439168 3.50586 3.52729C-1.16862 8.19614 -1.16862 15.8192 3.50586 20.488C5.8431 22.8225 8.92494 24 11.9861 24C15.0473 24 18.1291 22.8225 20.4663 20.488C24.4583 16.5009 25.1408 10.386 22.1417 5.63447C21.8935 5.24196 21.3764 5.11801 20.9834 5.36591C20.5904 5.61381 20.4663 6.13028 20.7145 6.52279C23.3 10.6132 22.7002 15.8605 19.2667 19.2898C15.2541 23.2976 8.69742 23.2976 4.68482 19.2898C0.672215 15.2821 0.672215 8.73327 4.68482 4.72549C8.11828 1.31682 13.3512 0.717716 17.4466 3.25873C17.8395 3.50663 18.3566 3.38268 18.6048 2.99017C18.853 2.59765 18.7289 2.08119 18.3359 1.83328Z" fill="#24253D"/>
</svg>
