<svg width="21" height="24" viewBox="0 0 21 24" fill="none" xmlns="http://www.w3.org/2000/svg">
<path fill-rule="evenodd" clip-rule="evenodd" d="M0 22.5C0 22.1022 0.152094 21.7206 0.422823 21.4393C0.693552 21.158 1.06074 21 1.44361 21H18.7669C19.1498 21 19.517 21.158 19.7877 21.4393C20.0584 21.7206 20.2105 22.1022 20.2105 22.5C20.2105 22.8978 20.0584 23.2794 19.7877 23.5607C19.517 23.842 19.1498 24 18.7669 24H1.44361C1.06074 24 0.693552 23.842 0.422823 23.5607C0.152094 23.2794 0 22.8978 0 22.5ZM4.7538 10.9395C5.02452 10.6583 5.39164 10.5003 5.77444 10.5003C6.15723 10.5003 6.52435 10.6583 6.79507 10.9395L8.66165 12.879V1.5C8.66165 1.10218 8.81375 0.720644 9.08448 0.43934C9.35521 0.158035 9.72239 0 10.1053 0C10.4881 0 10.8553 0.158035 11.126 0.43934C11.3968 0.720644 11.5489 1.10218 11.5489 1.5V12.879L13.4155 10.9395C13.5486 10.7962 13.7079 10.682 13.884 10.6033C14.0602 10.5247 14.2496 10.4834 14.4413 10.4816C14.633 10.4799 14.8231 10.5178 15.0005 10.5933C15.1779 10.6687 15.3391 10.7801 15.4746 10.9209C15.6102 11.0617 15.7174 11.2292 15.7899 11.4136C15.8625 11.5979 15.899 11.7954 15.8974 11.9946C15.8957 12.1938 15.8559 12.3906 15.7802 12.5736C15.7046 12.7566 15.5946 12.9221 15.4567 13.0605L11.1259 17.5605C10.8552 17.8417 10.4881 17.9997 10.1053 17.9997C9.72247 17.9997 9.35535 17.8417 9.08463 17.5605L4.7538 13.0605C4.48317 12.7792 4.33114 12.3977 4.33114 12C4.33114 11.6023 4.48317 11.2208 4.7538 10.9395Z" fill="#24253D"/>
</svg>
