<svg width="24" height="24" viewBox="0 0 24 24" fill="none" xmlns="http://www.w3.org/2000/svg">
<path d="M23.1476 23.3722C23.9766 22.5351 23.9766 21.178 23.1476 20.3409L3.62396 0.627807C2.79493 -0.209268 1.4508 -0.20927 0.621772 0.627805C-0.207257 1.46488 -0.207257 2.82205 0.621772 3.65912L20.1454 23.3722C20.9744 24.2093 22.3185 24.2093 23.1476 23.3722Z" fill="#24253D"/>
<path d="M0.852445 23.3722C0.0234151 22.5351 0.0234151 21.178 0.852445 20.3409L20.376 0.627807C21.2051 -0.209268 22.5492 -0.20927 23.3782 0.627805C24.2073 1.46488 24.2073 2.82205 23.3782 3.65912L3.85463 23.3722C3.0256 24.2093 1.68147 24.2093 0.852445 23.3722Z" fill="#24253D"/>
</svg>
