<svg width="21" height="25" viewBox="0 0 21 25" fill="none" xmlns="http://www.w3.org/2000/svg">
<path d="M15.2737 5.00978V12.21C15.2549 12.8247 15.4799 13.4219 15.8995 13.8716C16.3191 14.3212 16.8995 14.5867 17.514 14.6103H18.6337V23.0107C18.6239 23.1638 18.6456 23.3173 18.6975 23.4617C18.7493 23.6061 18.8303 23.7383 18.9352 23.8502C19.0402 23.9621 19.167 24.0513 19.3078 24.1123C19.4486 24.1733 19.6004 24.2047 19.7538 24.2047C19.9073 24.2047 20.0591 24.1733 20.1999 24.1123C20.3407 24.0513 20.4675 23.9621 20.5724 23.8502C20.6774 23.7383 20.7583 23.6061 20.8102 23.4617C20.8621 23.3173 20.8838 23.1638 20.874 23.0107V1.56566C20.8811 1.39044 20.8482 1.21591 20.7776 1.05539C20.707 0.894866 20.6006 0.7526 20.4667 0.639455C20.3327 0.52631 20.1746 0.445279 20.0046 0.40255C19.8345 0.359822 19.6569 0.356527 19.4854 0.392916C17.0658 1.02594 15.2737 3.22231 15.2737 5.00978ZM9.67441 8.61033H7.43413V1.41014C7.44353 1.10285 7.33113 0.804299 7.12141 0.579503C6.91169 0.354707 6.62165 0.221883 6.31445 0.209961C6.00757 0.222353 5.71799 0.355381 5.50866 0.580126C5.29933 0.80487 5.18718 1.10316 5.19659 1.41014V8.61033H2.95448V1.41014C2.96388 1.1027 2.85136 0.804012 2.64144 0.579191C2.43153 0.354369 2.14125 0.221648 1.83388 0.209961C1.52668 0.221883 1.23664 0.354707 1.02692 0.579503C0.8172 0.804299 0.704801 1.10285 0.714202 1.41014V8.61033C0.672974 9.84099 1.12187 11.0377 1.9623 11.9377C2.80273 12.8376 3.96599 13.3672 5.19659 13.4101V23.0098C5.18719 23.3171 5.29959 23.6156 5.50931 23.8404C5.71903 24.0652 6.00907 24.198 6.31628 24.21C6.62348 24.198 6.91352 24.0652 7.12324 23.8404C7.33296 23.6156 7.44536 23.3171 7.43596 23.0098V13.4101C8.66656 13.3672 9.82982 12.8376 10.6703 11.9377C11.5107 11.0377 11.9596 9.84099 11.9183 8.61033V1.41014C11.9281 1.25703 11.9064 1.10352 11.8546 0.959125C11.8027 0.814724 11.7218 0.682491 11.6168 0.57059C11.5118 0.45869 11.385 0.369501 11.2442 0.30853C11.1034 0.247559 10.9516 0.216102 10.7982 0.216102C10.6448 0.216102 10.493 0.247559 10.3522 0.30853C10.2114 0.369501 10.0846 0.45869 9.9796 0.57059C9.87463 0.682491 9.79371 0.814724 9.74185 0.959125C9.68999 1.10352 9.66828 1.25703 9.67807 1.41014L9.67441 8.61033Z" fill="#24253D"/>
</svg>
