<svg width="25" height="24" viewBox="0 0 25 24" fill="none" xmlns="http://www.w3.org/2000/svg">
<path d="M23.6953 12.3884L12.895 0.379947C12.7797 0.259822 12.6413 0.164242 12.4881 0.0989499C12.335 0.0336574 12.1702 0 12.0037 0C11.8372 0 11.6725 0.0336574 11.5193 0.0989499C11.3661 0.164242 11.2278 0.259822 11.1125 0.379947L0.313703 12.3884C0.156561 12.5607 0.0529677 12.7751 0.0155588 13.0053C-0.02185 13.2355 0.00854218 13.4716 0.103029 13.6848C0.197515 13.8981 0.352011 14.0792 0.547674 14.2061C0.743337 14.333 0.971709 14.4003 1.20493 14.3997H3.60502V22.8064C3.60671 23.1235 3.73389 23.4271 3.95876 23.6508C4.18363 23.8745 4.4879 24 4.80506 24H8.4052C8.56292 24 8.7191 23.9689 8.8648 23.9085C9.0105 23.8481 9.14286 23.7596 9.25432 23.648C9.36578 23.5363 9.45414 23.4039 9.51435 23.2581C9.57456 23.1123 9.60545 22.9561 9.60524 22.7984V17.9982H14.4054V22.7984C14.4052 22.9561 14.4361 23.1123 14.4963 23.2581C14.5565 23.4039 14.6449 23.5363 14.7563 23.648C14.8678 23.7596 15.0001 23.8481 15.1458 23.9085C15.2915 23.9689 15.4477 24 15.6055 24H19.2056C19.3633 24 19.5195 23.9689 19.6652 23.9085C19.8109 23.8481 19.9433 23.7596 20.0547 23.648C20.1662 23.5363 20.2545 23.4039 20.3147 23.2581C20.375 23.1123 20.4058 22.9561 20.4056 22.7984V14.3997H22.8057C23.0383 14.4006 23.2662 14.3338 23.4615 14.2074C23.6568 14.0811 23.8111 13.9006 23.9055 13.688C24 13.4755 24.0306 13.24 23.9936 13.0104C23.9565 12.7807 23.8535 12.5668 23.6969 12.3948L23.6953 12.3884Z" fill="#24253D"/>
</svg>
