<svg width="30" height="24" viewBox="0 0 30 24" fill="none" xmlns="http://www.w3.org/2000/svg">
<path d="M26.8105 0H3.34386C2.56589 0 1.81978 0.31607 1.26968 0.87868C0.719569 1.44129 0.410522 2.20435 0.410522 3V21C0.410522 21.7957 0.719569 22.5587 1.26968 23.1213C1.81978 23.6839 2.56589 24 3.34386 24H26.8105C27.5885 24 28.3346 23.6839 28.8847 23.1213C29.4348 22.5587 29.7439 21.7957 29.7439 21V3C29.7439 2.20435 29.4348 1.44129 28.8847 0.87868C28.3346 0.31607 27.5885 0 26.8105 0ZM26.8105 5.79934C26.8105 6.14435 26.6327 6.465 26.34 6.64767L16.1361 13.0161C15.4881 13.4205 14.6663 13.4205 14.0183 13.0161L3.81439 6.64767C3.52171 6.465 3.34386 6.14435 3.34386 5.79934V4C3.34386 3.44771 3.79157 3 4.34386 3H25.8105C26.3628 3 26.8105 3.44772 26.8105 4V5.79934Z" fill="#24253D"/>
</svg>
