<svg width="24" height="24" viewBox="0 0 24 24" fill="none" xmlns="http://www.w3.org/2000/svg">
<path d="M0 1.99978C0 1.4694 0.210689 0.960752 0.585719 0.585721C0.960748 0.21069 1.4694 0 1.99977 0H7.99999C8.53036 0 9.03901 0.21069 9.41404 0.585721C9.78907 0.960752 9.99976 1.4694 9.99976 1.99978V8.00002C9.99976 8.53039 9.78907 9.03904 9.41404 9.41407C9.03901 9.7891 8.53036 9.99979 7.99999 9.99979H1.99977C1.4694 9.99979 0.960748 9.7891 0.585719 9.41407C0.210689 9.03904 0 8.53039 0 8.00002V1.99978Z" fill="#24253D"/>
<path d="M14.0002 1.99978C14.0002 1.4694 14.2109 0.960752 14.586 0.585721C14.961 0.21069 15.4696 0 16 0H22.0002C22.5306 0 23.0393 0.21069 23.4143 0.585721C23.7893 0.960752 24 1.4694 24 1.99978V8.00002C24 8.53039 23.7893 9.03904 23.4143 9.41407C23.0393 9.7891 22.5306 9.99979 22.0002 9.99979H16C15.7374 9.99979 15.4774 9.94807 15.2347 9.84757C14.9921 9.74707 14.7717 9.59977 14.586 9.41407C14.4003 9.22838 14.253 9.00792 14.1525 8.7653C14.052 8.52267 14.0002 8.26263 14.0002 8.00002V1.99978Z" fill="#24253D"/>
<path d="M14.0002 16C14.0002 15.4696 14.2109 14.961 14.586 14.5859C14.961 14.2109 15.4696 14.0002 16 14.0002H22.0002C22.5306 14.0002 23.0393 14.2109 23.4143 14.5859C23.7893 14.961 24 15.4696 24 16V22.0002C24 22.5306 23.7893 23.0392 23.4143 23.4143C23.0393 23.7893 22.5306 24 22.0002 24H16C15.7374 24 15.4774 23.9483 15.2347 23.8478C14.9921 23.7473 14.7717 23.6 14.586 23.4143C14.4003 23.2286 14.253 23.0081 14.1525 22.7655C14.052 22.5229 14.0002 22.2628 14.0002 22.0002V16Z" fill="#24253D"/>
<path d="M0 16C0 15.4696 0.210689 14.961 0.585719 14.5859C0.960748 14.2109 1.4694 14.0002 1.99977 14.0002H7.99999C8.53036 14.0002 9.03901 14.2109 9.41404 14.5859C9.78907 14.961 9.99976 15.4696 9.99976 16V22.0002C9.99976 22.5306 9.78907 23.0392 9.41404 23.4143C9.03901 23.7893 8.53036 24 7.99999 24H1.99977C1.4694 24 0.960748 23.7893 0.585719 23.4143C0.210689 23.0392 0 22.5306 0 22.0002V16Z" fill="#24253D"/>
</svg>
