<svg width="26" height="26" viewBox="0 0 26 26" fill="none" xmlns="http://www.w3.org/2000/svg">
<path d="M16.3213 4.49063H20.2129V14.7119L22.8073 17.3061V3.19352C22.8073 2.48011 22.2235 1.89641 21.5101 1.89641H16.3213C16.3213 1.18299 15.7376 0.599293 15.0241 0.599293H6.09943L16.3213 10.8205V4.49063ZM25.6222 23.7917L13.7269 11.8971V13.5704H11.1325V10.9762H12.8059L2.20785 0.378784C1.9653 0.136253 1.63634 0 1.29333 0C0.950316 0 0.621353 0.136253 0.378807 0.378784C0.136261 0.621315 0 0.950257 0 1.29325C0 1.63624 0.136261 1.96518 0.378807 2.20771L4.64657 6.48818V21.3531H3.34938C2.63592 21.3531 2.05219 21.9368 2.05219 22.6502C2.05219 23.3636 2.63592 23.9473 3.34938 23.9473H15.0241C15.7376 23.9473 16.3213 23.3636 16.3213 22.6502V18.1622L23.7802 25.6206C24.2861 26.1265 25.1033 26.1265 25.6092 25.6206C26.1281 25.1147 26.1281 24.2975 25.6222 23.7917Z" fill="#24253D"/>
</svg>
