<svg width="37" height="34" viewBox="0 0 37 34" fill="none" xmlns="http://www.w3.org/2000/svg">
<path d="M2 18.5C2 17.1982 3.05533 16.1429 4.35714 16.1429H11.4286V24.3929H4.35714C3.05533 24.3929 2 23.3376 2 22.0357V18.5Z" fill="#24253D"/>
<path d="M10.6274 16.3149V23.4724V16.3149ZM24.4314 2V2.89468C24.4314 3.84382 24.795 4.75409 25.4421 5.42522C26.0893 6.09636 26.9671 6.47341 27.8824 6.47341C28.7977 6.47341 29.6753 6.85046 30.3226 7.5216C30.9698 8.19273 31.3333 9.103 31.3333 10.0521V10.9468L24.4314 2ZM6.52942 3.11837L35 32.6429L6.52942 3.11837ZM26.1568 23.4724H3.72549C3.26786 23.4724 2.82897 23.2838 2.50538 22.9483C2.18179 22.6127 2 22.1576 2 21.683V18.1042C2 17.6297 2.18179 17.1746 2.50538 16.839C2.82897 16.5034 3.26786 16.3149 3.72549 16.3149H19.2549L26.1568 23.4724ZM26.1568 16.3149H31.3333C31.791 16.3149 32.2299 16.5034 32.5534 16.839C32.877 17.1746 33.0588 17.6297 33.0588 18.1042V21.683C33.0588 22.184 32.8604 22.6368 32.5411 22.9607L26.1568 16.3149Z" stroke="#24253D" stroke-width="2.5" stroke-linecap="round" stroke-linejoin="round"/>
</svg>
