<svg width="32" height="24" viewBox="0 0 32 24" fill="none" xmlns="http://www.w3.org/2000/svg">
<path fill-rule="evenodd" clip-rule="evenodd" d="M17.6536 24C17.6536 24 19.5627 24 19.5627 21.9999C19.5627 20.0001 17.6536 14 10.0172 14C2.38085 14 0.471756 20.0001 0.471756 21.9999C0.471756 24 2.38085 24 2.38085 24H17.6536ZM10.0172 12C8.49824 12 7.04149 11.3679 5.96741 10.2426C4.89335 9.11743 4.28994 7.5913 4.28994 6C4.28994 4.4087 4.89335 2.88257 5.96741 1.75737C7.04149 0.632141 8.49824 0 10.0172 0C11.5362 0 12.9929 0.632141 14.067 1.75737C15.1411 2.88257 15.7445 4.4087 15.7445 6C15.7445 7.5913 15.1411 9.11743 14.067 10.2426C12.9929 11.3679 11.5362 12 10.0172 12ZM21.0594 24C21.3424 23.3757 21.4835 22.6911 21.4718 21.9999C21.4718 19.29 20.1736 16.5 17.7758 14.56C18.9726 14.1737 20.2196 13.9847 21.4718 14C29.1081 14 31.0172 20.0001 31.0172 21.9999C31.0172 24 29.1081 24 29.1081 24H21.0594ZM22.4263 12C21.1605 12 19.9465 11.4732 19.0515 10.5355C18.1564 9.59786 17.6536 8.32608 17.6536 6.99999C17.6536 5.67391 18.1564 4.40215 19.0515 3.46447C19.9465 2.52679 21.1605 2.00001 22.4263 2.00001C23.6921 2.00001 24.9061 2.52679 25.8011 3.46447C26.6962 4.40215 27.199 5.67391 27.199 6.99999C27.199 8.32608 26.6962 9.59786 25.8011 10.5355C24.9061 11.4732 23.6921 12 22.4263 12Z" fill="#24253D"/>
</svg>
