<svg width="26" height="24" viewBox="0 0 26 24" fill="none" xmlns="http://www.w3.org/2000/svg">
<path d="M10.6854 14.0152C12.2301 15.5391 14.0991 16.7157 16.1612 17.4623L18.9509 15.3034C19.0337 15.248 19.1317 15.2183 19.2321 15.2183C19.3326 15.2183 19.4306 15.248 19.5133 15.3034L24.6931 18.5489C24.8898 18.6639 25.0563 18.8218 25.1794 19.0101C25.3025 19.1984 25.3789 19.4119 25.4026 19.6339C25.4263 19.8559 25.3966 20.0801 25.3158 20.289C25.2351 20.4979 25.1055 20.6856 24.9373 20.8374L22.5102 23.1691C22.1626 23.5031 21.7354 23.7482 21.2667 23.8825C20.798 24.0169 20.3024 24.0363 19.8241 23.9391C15.0529 22.9807 10.6552 20.7363 7.13356 17.4623C3.69008 14.1557 1.30721 9.94838 0.274005 5.35069C0.171937 4.89273 0.19324 4.4169 0.335849 3.96931C0.478457 3.52172 0.737536 3.11754 1.08798 2.79595L3.60389 0.43552C3.75958 0.279924 3.94944 0.160598 4.15927 0.0864768C4.3691 0.0123557 4.59345 -0.01464 4.81553 0.00751122C5.0376 0.0296625 5.25165 0.100387 5.44164 0.214388C5.63163 0.328389 5.79263 0.482714 5.91261 0.665806L9.36088 5.63854C9.42036 5.71663 9.45247 5.81123 9.45247 5.90841C9.45247 6.00559 9.42036 6.10019 9.36088 6.17828L7.08916 8.83376C7.87767 10.7991 9.10613 12.569 10.6854 14.0152V14.0152Z" fill="#24253D"/>
</svg>
