<svg width="35" height="25" viewBox="0 0 35 25" fill="none" xmlns="http://www.w3.org/2000/svg">
<path d="M34.0426 20.7776H33.17C32.0684 20.8305 30.9839 20.4906 30.1096 19.8184C29.6467 19.3587 29.0283 19.0893 28.3764 19.0633H27.487C26.8351 19.0893 26.2167 19.3587 25.7538 19.8184C24.88 20.4909 23.7957 20.8308 22.6944 20.7776C21.5928 20.8305 20.5083 20.4906 19.634 19.8184C19.1711 19.3587 18.5527 19.0893 17.9008 19.0633H17.0133C16.3615 19.0893 15.743 19.3587 15.2801 19.8184C14.4064 20.4909 13.322 20.8308 12.2207 20.7776C11.1192 20.8305 10.0346 20.4906 9.16033 19.8184C8.69746 19.3587 8.07902 19.0893 7.42716 19.0633H6.53769C5.88583 19.0893 5.26739 19.3587 4.80452 19.8184C3.93074 20.4909 2.84639 20.8308 1.74511 20.7776H0.872554C0.75893 20.7765 0.646213 20.7979 0.540849 20.8404C0.435485 20.883 0.33954 20.9459 0.258502 21.0255C0.177464 21.1052 0.112922 21.2 0.0685657 21.3046C0.0242098 21.4092 0.000910463 21.5216 0 21.6352V23.3495C0.000910463 23.4631 0.0242098 23.5754 0.0685657 23.68C0.112922 23.7846 0.177464 23.8795 0.258502 23.9591C0.33954 24.0388 0.435485 24.1017 0.540849 24.1442C0.646213 24.1868 0.75893 24.2081 0.872554 24.2071H1.74511C3.63504 24.2568 5.48446 23.6542 6.98242 22.5008C8.48024 23.6545 10.3298 24.2571 12.2197 24.2071C14.1097 24.2568 15.9591 23.6542 17.4571 22.5008C18.9549 23.6545 20.8044 24.2571 22.6944 24.2071C24.5843 24.2568 26.4337 23.6542 27.9317 22.5008C29.4295 23.6545 31.279 24.2571 33.169 24.2071H34.0416C34.1552 24.2081 34.2679 24.1868 34.3733 24.1442C34.4786 24.1017 34.5746 24.0388 34.6556 23.9591C34.7366 23.8795 34.8012 23.7846 34.8455 23.68C34.8899 23.5754 34.9132 23.4631 34.9141 23.3495V21.6352C34.9132 21.5216 34.8899 21.4094 34.8456 21.3048C34.8013 21.2003 34.7369 21.1055 34.656 21.0259C34.575 20.9462 34.4792 20.8833 34.374 20.8407C34.2687 20.7981 34.1561 20.7766 34.0426 20.7776ZM12.2207 19.0633V13.9195H22.6954V19.0633C23.3593 19.106 24.0188 18.9287 24.5718 18.5589C25.0401 18.1312 25.5896 17.8019 26.1876 17.5908V5.34618C26.1985 4.89043 26.3871 4.45701 26.7133 4.13853C27.0395 3.82004 27.4773 3.64175 27.9332 3.64175C28.3891 3.64175 28.8269 3.82004 29.153 4.13853C29.4792 4.45701 29.6679 4.89043 29.6788 5.34618V6.20381C29.6797 6.31744 29.703 6.42977 29.7474 6.53438C29.7917 6.639 29.8563 6.73384 29.9373 6.81349C30.0183 6.89315 30.1143 6.95604 30.2196 6.99859C30.325 7.04113 30.4377 7.06249 30.5513 7.06144H32.2974C32.4111 7.06249 32.5238 7.04113 32.6291 6.99859C32.7345 6.95604 32.8305 6.89315 32.9115 6.81349C32.9925 6.73384 33.0571 6.639 33.1014 6.53438C33.1458 6.42977 33.1691 6.31744 33.17 6.20381V5.34618C33.1433 3.97484 32.5797 2.66868 31.6005 1.70831C30.6212 0.747932 29.3043 0.209961 27.9327 0.209961C26.5611 0.209961 25.2442 0.747932 24.2649 1.70831C23.2856 2.66868 22.7221 3.97484 22.6954 5.34618V10.49H12.2207V5.34618C12.2316 4.89043 12.4203 4.45701 12.7465 4.13853C13.0727 3.82004 13.5105 3.64175 13.9663 3.64175C14.4222 3.64175 14.86 3.82004 15.1862 4.13853C15.5124 4.45701 15.7011 4.89043 15.7119 5.34618V6.20381C15.7129 6.31744 15.7362 6.42977 15.7805 6.53438C15.8249 6.639 15.8894 6.73384 15.9704 6.81349C16.0515 6.89315 16.1474 6.95604 16.2528 6.99859C16.3582 7.04113 16.4709 7.06249 16.5845 7.06144H18.3306C18.4442 7.06249 18.5569 7.04113 18.6623 6.99859C18.7677 6.95604 18.8636 6.89315 18.9447 6.81349C19.0257 6.73384 19.0902 6.639 19.1346 6.53438C19.1789 6.42977 19.2022 6.31744 19.2032 6.20381V5.34618C19.1764 3.97484 18.6129 2.66868 17.6336 1.70831C16.6543 0.747932 15.3374 0.209961 13.9658 0.209961C12.5942 0.209961 11.2773 0.747932 10.2981 1.70831C9.31879 2.66868 8.75526 3.97484 8.72853 5.34618V17.5898C9.32646 17.8011 9.87589 18.1303 10.3443 18.5579C10.8971 18.9284 11.5567 19.106 12.2207 19.0633Z" fill="#24253D"/>
</svg>
