<svg width="25" height="24" viewBox="0 0 25 24" fill="none" xmlns="http://www.w3.org/2000/svg">
<path fill-rule="evenodd" clip-rule="evenodd" d="M2.21053 24C2.21053 24 0.210526 24 0.210526 22C0.210526 20 2.21053 14 12.2105 14C22.2105 14 24.2105 20 24.2105 22C24.2105 24 22.2105 24 22.2105 24H2.21053ZM12.2105 12C13.8018 12 15.3279 11.3679 16.4532 10.2426C17.5784 9.11742 18.2105 7.5913 18.2105 6C18.2105 4.4087 17.5784 2.88258 16.4532 1.75736C15.3279 0.632141 13.8018 0 12.2105 0C10.6192 0 9.0931 0.632141 7.96788 1.75736C6.84267 2.88258 6.21053 4.4087 6.21053 6C6.21053 7.5913 6.84267 9.11742 7.96788 10.2426C9.0931 11.3679 10.6192 12 12.2105 12Z" fill="#24243C"/>
</svg>
