<svg width="25" height="24" viewBox="0 0 25 24" fill="none" xmlns="http://www.w3.org/2000/svg">
<path fill-rule="evenodd" clip-rule="evenodd" d="M21.491 12.0007C21.4918 14.0625 20.7848 16.0621 19.4884 17.665C18.192 19.2679 16.3848 20.3768 14.369 20.8064C12.3533 21.2359 10.2512 20.9601 8.4144 20.0249C7.01283 19.3113 5.83056 18.2468 4.97611 16.9458C4.53021 16.2668 3.68111 15.9114 2.92857 16.2172V16.2172C2.14409 16.5359 1.76898 17.4449 2.20438 18.1711C3.34545 20.0745 4.99779 21.6334 6.98673 22.6613C9.43527 23.9267 12.2446 24.3101 14.9425 23.7471C17.6404 23.1841 20.0623 21.709 21.801 19.5698C23.5397 17.4307 24.4891 14.7578 24.4898 12.0007C24.4899 9.49613 23.7067 7.05429 22.25 5.01741C20.7932 2.98052 18.7359 1.45068 16.3664 0.642281C13.9969 -0.166118 11.434 -0.212555 9.03678 0.50948C6.63958 1.23152 4.52827 2.68583 2.99875 4.66861V2.49995C2.99875 1.67187 2.32746 1.00057 1.49938 1.00057V1.00057C0.671293 1.00057 0 1.67186 0 2.49995V8.5534C0 8.84793 0.0650628 9.13883 0.190538 9.40529L0.19766 9.42042C0.38627 9.82096 0.710943 10.1415 1.11385 10.3251V10.3251C1.36791 10.4408 1.64384 10.5007 1.92302 10.5007H6.99644C7.82488 10.5007 8.49646 9.82909 8.49646 9.00066V9.00066C8.49646 8.17222 7.82488 7.50064 6.99644 7.50064H4.70204C5.69184 5.78397 7.22033 4.44212 9.05033 3.68334C10.8803 2.92455 12.9095 2.79126 14.823 3.30413C16.7364 3.81701 18.4272 4.94738 19.6329 6.51983C20.8385 8.09228 21.4917 10.0189 21.491 12.0007Z" fill="#24253D"/>
</svg>
