<svg width="26" height="24" viewBox="0 0 26 24" fill="none" xmlns="http://www.w3.org/2000/svg">
<path d="M23.3518 8.8432H21.971C21.8836 8.83584 21.8005 8.80205 21.7327 8.74632C21.665 8.69059 21.6158 8.61556 21.5918 8.5312C21.5465 8.46588 21.5222 8.38829 21.5222 8.3088C21.5222 8.22932 21.5465 8.15173 21.5918 8.0864L22.6142 7.1984C22.8125 7.01932 22.972 6.80151 23.083 6.55841C23.1902 6.3161 23.2447 6.05378 23.243 5.78881C23.2439 5.52237 23.1895 5.25864 23.083 5.01441C22.9731 4.76692 22.8142 4.54429 22.6158 4.36001L20.9262 2.71201C20.7279 2.52286 20.4948 2.37397 20.2398 2.27361C19.7189 2.06863 19.1398 2.06863 18.619 2.27361C18.364 2.37397 18.1309 2.52286 17.9326 2.71201L16.9598 3.60001C16.8816 3.6473 16.792 3.67231 16.7006 3.67231C16.6092 3.67231 16.5196 3.6473 16.4414 3.60001C16.3659 3.57347 16.2994 3.52636 16.2494 3.46401C16.2002 3.40315 16.1702 3.32911 16.163 3.25121V2.01601C16.1629 1.75423 16.1104 1.4951 16.0088 1.25386C15.9071 1.01262 15.7583 0.794125 15.571 0.611215C15.1769 0.230138 14.6535 0.0118575 14.1054 1.60078e-05H11.6558C11.097 -0.00211731 10.5585 0.209047 10.1502 0.590415C9.95408 0.772994 9.79709 0.993491 9.68873 1.23854C9.58037 1.48359 9.52289 1.74809 9.51978 2.01601V3.32321C9.51978 3.49121 9.38058 3.61121 9.19179 3.68321C9.12145 3.72619 9.04062 3.74893 8.95819 3.74893C8.87576 3.74893 8.79492 3.72619 8.72459 3.68321L7.79019 2.71041C7.38269 2.33076 6.84791 2.1173 6.29099 2.11201C6.0134 2.11329 5.7386 2.1676 5.48139 2.27201C5.22738 2.37373 4.99581 2.52431 4.79979 2.71521L3.06859 4.31521C2.8653 4.49927 2.70193 4.72309 2.5886 4.97281C2.47847 5.21866 2.42154 5.48501 2.42154 5.75441C2.42154 6.0238 2.47847 6.29015 2.5886 6.53601C2.70193 6.78573 2.8653 7.00954 3.06859 7.1936L4.00299 8.0816C4.05259 8.1542 4.07912 8.24008 4.07912 8.328C4.07912 8.41593 4.05259 8.5018 4.00299 8.5744C3.97404 8.64763 3.9246 8.71095 3.86059 8.7568C3.79478 8.80395 3.71731 8.83217 3.63659 8.8384H2.3326C1.77372 8.83922 1.2365 9.05457 0.831798 9.44C0.637624 9.6222 0.482477 9.84194 0.375765 10.0859C0.269052 10.3298 0.212997 10.5929 0.210999 10.8592V13.12C0.210828 13.3897 0.265812 13.6565 0.372571 13.9042C0.47933 14.1518 0.635608 14.375 0.831798 14.56C1.23762 14.9433 1.77438 15.1573 2.3326 15.1584H3.71019C3.7976 15.1657 3.8807 15.1995 3.94843 15.2553C4.01617 15.311 4.06534 15.386 4.08939 15.4704C4.13467 15.5357 4.15893 15.6133 4.15893 15.6928C4.15893 15.7723 4.13467 15.8499 4.08939 15.9152L3.06699 16.8032C2.87181 16.9873 2.71536 17.2085 2.60684 17.4538C2.49831 17.6992 2.43988 17.9637 2.435 18.232C2.43359 18.4985 2.4881 18.7623 2.595 19.0064C2.70478 19.2535 2.86374 19.4756 3.06219 19.6592L4.75819 21.28C4.95648 21.4691 5.18959 21.618 5.44459 21.7184C5.96541 21.9234 6.54457 21.9234 7.06539 21.7184C7.32039 21.618 7.5535 21.4691 7.75179 21.28L8.72459 20.392C8.80283 20.3449 8.89244 20.32 8.98379 20.32C9.07513 20.32 9.16474 20.3449 9.24299 20.392C9.31841 20.4185 9.38492 20.4656 9.43498 20.528C9.48413 20.5888 9.51419 20.6629 9.52138 20.7408V22.0496C9.53153 22.3104 9.59332 22.5666 9.70318 22.8033C9.81304 23.0401 9.96878 23.2527 10.1614 23.4288C10.566 23.7985 11.0949 24.0024 11.643 24H14.0302C14.5889 24.0021 15.1274 23.7909 15.5358 23.4096C15.7319 23.227 15.8889 23.0065 15.9972 22.7615C16.1056 22.5164 16.1631 22.2519 16.1662 21.984V20.6768C16.1662 20.5168 16.3054 20.3888 16.4942 20.3168C16.5645 20.2738 16.6453 20.2511 16.7278 20.2511C16.8102 20.2511 16.891 20.2738 16.9614 20.3168L17.9214 21.24C18.3299 21.6202 18.8657 21.8341 19.4238 21.84C19.7014 21.8387 19.9762 21.7844 20.2334 21.68C20.4874 21.5782 20.7189 21.4277 20.915 21.2368L22.611 19.632C22.8067 19.4481 22.9635 19.2266 23.0718 18.9808C23.1787 18.738 23.234 18.4757 23.234 18.2104C23.234 17.9451 23.1787 17.6827 23.0718 17.44C22.9636 17.1936 22.8069 16.9716 22.611 16.7872L21.6894 15.912C21.6441 15.8467 21.6198 15.7691 21.6198 15.6896C21.6198 15.6101 21.6441 15.5325 21.6894 15.4672C21.7183 15.394 21.7678 15.3306 21.8318 15.2848C21.8975 15.2376 21.975 15.2093 22.0558 15.2032H23.4334C23.9726 15.1852 24.4858 14.9673 24.8734 14.592C25.0605 14.4109 25.2097 14.1945 25.3124 13.9553C25.4152 13.716 25.4693 13.4587 25.4718 13.1984V10.88C25.4719 10.6103 25.4169 10.3435 25.3102 10.0958C25.2034 9.8482 25.0471 9.62502 24.851 9.44C24.4453 9.05768 23.9092 8.84427 23.3518 8.8432V8.8432ZM12.843 16.2032C11.9735 16.2039 11.1218 15.9576 10.387 15.4928C9.66694 15.039 9.09956 14.3796 8.75819 13.6C8.42369 12.8368 8.33587 11.9883 8.50699 11.1728C8.68221 10.3497 9.10416 9.59957 9.71658 9.0224C10.3453 8.43 11.1313 8.03118 11.9806 7.8736C12.8393 7.71034 13.7267 7.79298 14.5406 8.112C15.339 8.42257 16.0288 8.96051 16.5246 9.6592C17.007 10.3443 17.2653 11.1621 17.2638 12C17.2613 12.557 17.1452 13.1076 16.9226 13.6182C16.7001 14.1288 16.3757 14.5886 15.9694 14.9696C15.1228 15.7642 14.0041 16.2045 12.843 16.2V16.2032Z" fill="#24253D"/>
</svg>
