<svg width="25" height="25" viewBox="0 0 25 25" fill="none" xmlns="http://www.w3.org/2000/svg">
<path d="M21.4497 8.78139V3.63853C21.4497 2.72922 21.0887 1.85715 20.4461 1.21417C19.8035 0.571184 18.9319 0.209961 18.0232 0.209961H7.74349C5.85889 0.209961 4.31694 1.75282 4.31694 3.63853V8.78139C2.43233 8.78139 0.70192 10.3242 0.89038 12.21V20.7814H3.16904L4.08843 23.5274C4.22493 23.9351 4.60675 24.21 5.03669 24.21H5.31046C5.74041 24.21 6.12223 23.9351 6.25873 23.5274L7.17811 20.7814H18.5885L19.5079 23.5274C19.6444 23.9351 20.0263 24.21 20.4562 24.21H20.73C21.1599 24.21 21.5417 23.9351 21.6782 23.5274L22.5976 20.7814H24.8763V12.21C24.8763 11.3006 24.5153 10.4286 23.8727 9.7856C23.2301 9.14261 22.3585 8.78139 21.4497 8.78139ZM18.0232 8.78139H7.74349V3.63853H18.0232V8.78139Z" fill="#24253D"/>
</svg>
