<svg width="36" height="26" viewBox="0 0 36 26" fill="none" xmlns="http://www.w3.org/2000/svg">
<path d="M10.386 17.1579V24.7368V17.1579ZM24.9825 2V2.94737C24.9825 3.9524 25.3669 4.91627 26.0512 5.62693C26.7356 6.3376 27.6638 6.73684 28.6316 6.73684C29.5993 6.73684 30.5275 7.13609 31.2119 7.84675C31.8962 8.55742 32.2807 9.52128 32.2807 10.5263V11.4737L24.9825 2ZM3.08771 17.1579H32.2807C33.2884 17.1579 34.1053 18.0062 34.1053 19.0526V22.8421C34.1053 23.8885 33.2884 24.7368 32.2807 24.7368H3.08771C2.08004 24.7368 1.26315 23.8885 1.26315 22.8421V19.0526C1.26315 18.0062 2.08004 17.1579 3.08771 17.1579Z" stroke="#24253D" stroke-width="2.5" stroke-linecap="round" stroke-linejoin="round"/>
<path d="M0 18.421C0 17.0257 1.13107 15.8947 2.52632 15.8947H10.1053V26H2.52632C1.13107 26 0 24.8689 0 23.4737V18.421Z" fill="#24253D"/>
</svg>
