<svg width="25" height="24" viewBox="0 0 25 24" fill="none" xmlns="http://www.w3.org/2000/svg">
<path d="M8.41721 7.2C8.19521 7.674 7.71401 7.7232 7.21721 7.8L0.0172119 9L5.41721 14.4C5.83336 14.9049 6.04718 15.5464 6.01721 16.2L4.81721 24L11.4172 20.4C11.5942 20.2796 11.8032 20.2153 12.0172 20.2153C12.2312 20.2153 12.4403 20.2796 12.6172 20.4L19.2172 24L18.0172 16.2C17.9872 15.5464 18.2011 14.9049 18.6172 14.4L24.0172 9L16.8172 7.8C16.3204 7.7232 15.8392 7.674 15.6172 7.2L12.0172 0L8.41721 7.2Z" fill="#24253D"/>
</svg>
