<svg width="32" height="25" viewBox="0 0 32 25" fill="none" xmlns="http://www.w3.org/2000/svg">
<path d="M27.8237 8.78139V3.63853C27.8237 2.72922 27.4688 1.85715 26.8371 1.21417C26.2054 0.571184 25.3486 0.209961 24.4552 0.209961H7.61312C6.71976 0.209961 5.86299 0.571184 5.23129 1.21417C4.59959 1.85715 4.2447 2.72922 4.2447 3.63853V8.78139C3.35134 8.78139 2.49457 9.14261 1.86287 9.7856C1.23117 10.4286 0.876282 11.3006 0.876282 12.21V20.7814H3.11628L4.01847 23.5226C4.15347 23.9328 4.53652 24.21 4.96835 24.21H5.20527C5.6371 24.21 6.02014 23.9328 6.15514 23.5226L7.05733 20.7814H25.011L25.9132 23.5226C26.0482 23.9328 26.4313 24.21 26.8631 24.21H27.1C27.5318 24.21 27.9149 23.9328 28.0499 23.5226L28.9521 20.7814H31.1921V12.21C31.1921 11.3006 30.8372 10.4286 30.2055 9.7856C29.5738 9.14261 28.717 8.78139 27.8237 8.78139ZM24.4552 8.78139H7.61312V3.63853H24.4552V8.78139Z" fill="#24253D"/>
</svg>
