<svg width="31" height="24" viewBox="0 0 31 24" fill="none" xmlns="http://www.w3.org/2000/svg">
<path d="M27.5879 0H3.53939C1.88154 0 0.533325 1.3455 0.533325 3V21C0.533325 22.6545 1.88154 24 3.53939 24H27.5879C29.2457 24 30.5939 22.6545 30.5939 21V3C30.5939 1.3455 29.2457 0 27.5879 0ZM10.6262 6C12.3562 6 13.6322 7.2735 13.6322 9C13.6322 10.7265 12.3562 12 10.6262 12C8.89619 12 7.62011 10.7265 7.62011 9C7.62011 7.2735 8.89468 6 10.6262 6ZM16.2099 18H5.04242V17.3025C5.04242 15.243 7.56149 13.125 10.6262 13.125C13.6909 13.125 16.2099 15.243 16.2099 17.3025V18ZM26.0848 16.5H20.0727V13.5H26.0848V16.5ZM26.0848 10.5H18.5697V7.5H26.0848V10.5Z" fill="#24253D"/>
</svg>
