<svg width="18" height="25" viewBox="0 0 18 25" fill="none" xmlns="http://www.w3.org/2000/svg">
<path d="M5.71159 17.01H9.31159C11.5394 17.01 13.676 16.125 15.2513 14.5497C16.8266 12.9744 17.7116 10.8378 17.7116 8.60996C17.7116 6.38214 16.8266 4.24557 15.2513 2.67026C13.676 1.09496 11.5394 0.209961 9.31159 0.209961H2.91159C1.80702 0.209961 0.911591 1.10539 0.911591 2.20996V21.81C0.911591 23.1354 1.98611 24.21 3.31159 24.21C4.63707 24.21 5.71159 23.1354 5.71159 21.81V17.01ZM5.71159 5.00996H9.31159C10.2664 5.00996 11.182 5.38925 11.8572 6.06438C12.5323 6.73951 12.9116 7.65518 12.9116 8.60996C12.9116 9.56474 12.5323 10.4804 11.8572 11.1555C11.182 11.8307 10.2664 12.21 9.31159 12.21H5.71159V5.00996Z" fill="#24253D"/>
</svg>
