<svg width="31" height="25" viewBox="0 0 31 25" fill="none" xmlns="http://www.w3.org/2000/svg">
<path d="M15.8851 24.21C16.1818 24.21 16.472 24.122 16.7187 23.9571C16.9655 23.7922 17.1578 23.5578 17.2714 23.2836C17.385 23.0094 17.4147 22.7077 17.3568 22.4167C17.2989 22.1256 17.156 21.8582 16.9461 21.6483C16.7363 21.4385 16.4689 21.2956 16.1778 21.2377C15.8867 21.1798 15.585 21.2095 15.3108 21.3231C15.0366 21.4366 14.8023 21.629 14.6374 21.8757C14.4725 22.1225 14.3845 22.4126 14.3845 22.7094C14.3845 23.1074 14.5426 23.489 14.824 23.7705C15.1054 24.0519 15.4871 24.21 15.8851 24.21Z" fill="#24253D"/>
<path d="M15.8848 15.2024C13.9426 15.2024 12.0762 15.9555 10.6779 17.3033C10.3952 17.5807 10.2335 17.9587 10.2281 18.3548C10.2227 18.7509 10.374 19.133 10.6491 19.418C10.9243 19.703 11.3009 19.8678 11.6969 19.8764C12.093 19.885 12.4763 19.7367 12.7636 19.4639C13.6158 18.683 14.7298 18.2499 15.8857 18.2499C17.0416 18.2499 18.1556 18.683 19.0079 19.4639C19.2951 19.7367 19.6785 19.885 20.0745 19.8764C20.4706 19.8678 20.8472 19.703 21.1223 19.418C21.3974 19.133 21.5488 18.7509 21.5434 18.3548C21.538 17.9587 21.3763 17.5807 21.0935 17.3033C19.6947 15.955 17.8275 15.2019 15.8848 15.2024ZM15.8848 7.69956C14.0721 7.70133 12.2784 8.06798 10.6104 8.77768C8.94248 9.48737 7.43447 10.5256 6.17627 11.8304C5.8997 12.1234 5.75085 12.5143 5.76247 12.917C5.76823 13.1165 5.8132 13.3128 5.89483 13.4948C5.97647 13.6769 6.09315 13.841 6.23823 13.978C6.38331 14.1149 6.55394 14.222 6.74039 14.293C6.92683 14.364 7.12543 14.3975 7.32485 14.3918C7.7276 14.3802 8.10923 14.209 8.3858 13.916C9.36565 12.8994 10.5404 12.0908 11.8398 11.5385C13.1393 10.9862 14.5367 10.7015 15.9486 10.7015C17.3606 10.7015 18.758 10.9862 20.0575 11.5385C21.3569 12.0908 22.5316 12.8994 23.5115 13.916C23.7904 14.1898 24.1654 14.3435 24.5562 14.3445C24.947 14.3454 25.3226 14.1935 25.6029 13.9211C25.8832 13.6488 26.0458 13.2776 26.056 12.8869C26.0662 12.4962 25.9233 12.1171 25.6576 11.8304C24.3925 10.5183 22.8748 9.47587 21.1961 8.76593C19.5173 8.056 17.7122 7.69325 15.8896 7.69956H15.8848Z" fill="#24253D"/>
<path d="M30.4698 6.09871C26.5541 2.32102 21.3254 0.209961 15.8845 0.209961C10.4436 0.209961 5.21491 2.32102 1.29922 6.09871C1.04582 6.38032 0.908316 6.74734 0.914295 7.12611C0.920275 7.50489 1.0693 7.86739 1.33145 8.14085C1.59361 8.41432 1.94949 8.57851 2.32768 8.60047C2.70587 8.62243 3.07837 8.50053 3.37041 8.25925C6.72789 5.01383 11.2149 3.1997 15.8845 3.1997C20.5542 3.1997 25.0412 5.01383 28.3986 8.25925C28.6867 8.52562 29.0677 8.66825 29.4599 8.65646C29.852 8.64466 30.2238 8.47938 30.4953 8.19618C30.7668 7.91299 30.9162 7.53452 30.9115 7.14224C30.9067 6.74996 30.7481 6.37523 30.4698 6.09871Z" fill="#24253D"/>
</svg>
